<mxfile host="Electron" agent="Mozilla/5.0 (X11; Linux x86_64) AppleWebKit/537.36 (KHTML, like Gecko) draw.io/26.0.16 Chrome/132.0.6834.210 Electron/34.3.2 Safari/537.36" version="26.0.16">
  <diagram name="Page-1" id="j0KiJfuzZCssB-MRM7Cl">
    <mxGraphModel dx="3996" dy="1173" grid="1" gridSize="10" guides="1" tooltips="1" connect="1" arrows="1" fold="1" page="0" pageScale="1" pageWidth="850" pageHeight="1100" math="0" shadow="0">
      <root>
        <mxCell id="0" />
        <mxCell id="1" parent="0" />
        <mxCell id="_hS-4gmbDoJe5aBay4XO-33" value="" style="swimlane;startSize=0;fontFamily=New York Small;" parent="1" vertex="1">
          <mxGeometry x="530" y="-360" width="1030" height="1040" as="geometry">
            <mxRectangle x="530" y="-340" width="50" height="40" as="alternateBounds" />
          </mxGeometry>
        </mxCell>
        <mxCell id="_hS-4gmbDoJe5aBay4XO-22" value="This file has information about the block categories, using them we can get a list of categories and the corresponding folder name int the same directory, to fetch them to get blocks" style="rounded=0;whiteSpace=wrap;html=1;fillColor=#4842FF;fontFamily=New York Small;" parent="_hS-4gmbDoJe5aBay4XO-33" vertex="1">
          <mxGeometry x="80" y="180" width="320" height="80" as="geometry" />
        </mxCell>
        <mxCell id="_hS-4gmbDoJe5aBay4XO-21" value="./init.json" style="rounded=0;whiteSpace=wrap;html=1;fontFamily=New York Small;" parent="_hS-4gmbDoJe5aBay4XO-33" vertex="1">
          <mxGeometry x="220" y="400" width="120" height="60" as="geometry" />
        </mxCell>
        <mxCell id="_hS-4gmbDoJe5aBay4XO-23" style="edgeStyle=orthogonalEdgeStyle;rounded=0;orthogonalLoop=1;jettySize=auto;html=1;entryX=0.5;entryY=1;entryDx=0;entryDy=0;fontFamily=New York Small;" parent="_hS-4gmbDoJe5aBay4XO-33" source="_hS-4gmbDoJe5aBay4XO-21" target="_hS-4gmbDoJe5aBay4XO-22" edge="1">
          <mxGeometry relative="1" as="geometry" />
        </mxCell>
        <mxCell id="_hS-4gmbDoJe5aBay4XO-24" value="MoveSteps&lt;span style=&quot;color: rgba(0, 0, 0, 0); font-family: monospace; font-size: 0px; text-align: start; text-wrap: nowrap;&quot;&gt;%3CmxGraphModel%3E%3Croot%3E%3CmxCell%20id%3D%220%22%2F%3E%3CmxCell%20id%3D%221%22%20parent%3D%220%22%2F%3E%3CmxCell%20id%3D%222%22%20value%3D%22.%2F%26lt%3Bspan%20style%3D%26quot%3Bcolor%3A%20rgba(0%2C%200%2C%200%2C%200)%3B%20font-family%3A%20monospace%3B%20font-size%3A%200px%3B%20text-align%3A%20start%3B%20text-wrap%3A%20nowrap%3B%26quot%3B%26gt%3B%253CmxGraphModel%253E%253Croot%253E%253CmxCell%2520id%253D%25220%2522%252F%253E%253CmxCell%2520id%253D%25221%2522%2520parent%253D%25220%2522%252F%253E%253CmxCell%2520id%253D%25222%2522%2520value%253D%2522.%252Fblocks%2522%2520style%253D%2522rounded%253D0%253BwhiteSpace%253Dwrap%253Bhtml%253D1%253B%2522%2520vertex%253D%25221%2522%2520parent%253D%25221%2522%253E%253CmxGeometry%2520x%253D%2522640%2522%2520y%253D%2522130%2522%2520width%253D%2522120%2522%2520height%253D%252260%2522%2520as%253D%2522geometry%2522%252F%253E%253C%252FmxCell%253E%253C%252Froot%253E%253C%252FmxGraphModel%253E%26lt%3B%2Fspan%26gt%3Bmotion%22%20style%3D%22rounded%3D0%3BwhiteSpace%3Dwrap%3Bhtml%3D1%3B%22%20vertex%3D%221%22%20parent%3D%221%22%3E%3CmxGeometry%20x%3D%22810%22%20y%3D%22130%22%20width%3D%22120%22%20height%3D%2260%22%20as%3D%22geometry%22%2F%3E%3C%2FmxCell%3E%3C%2Froot%3E%3C%2FmxGraphModel%3E&lt;/span&gt;.json" style="rounded=0;whiteSpace=wrap;html=1;fontFamily=New York Small;" parent="_hS-4gmbDoJe5aBay4XO-33" vertex="1">
          <mxGeometry x="720" y="140" width="120" height="60" as="geometry" />
        </mxCell>
        <mxCell id="_hS-4gmbDoJe5aBay4XO-19" value="./&lt;span style=&quot;color: rgba(0, 0, 0, 0); font-family: monospace; font-size: 0px; text-align: start; text-wrap: nowrap;&quot;&gt;%3CmxGraphModel%3E%3Croot%3E%3CmxCell%20id%3D%220%22%2F%3E%3CmxCell%20id%3D%221%22%20parent%3D%220%22%2F%3E%3CmxCell%20id%3D%222%22%20value%3D%22.%2Fblocks%22%20style%3D%22rounded%3D0%3BwhiteSpace%3Dwrap%3Bhtml%3D1%3B%22%20vertex%3D%221%22%20parent%3D%221%22%3E%3CmxGeometry%20x%3D%22640%22%20y%3D%22130%22%20width%3D%22120%22%20height%3D%2260%22%20as%3D%22geometry%22%2F%3E%3C%2FmxCell%3E%3C%2Froot%3E%3C%2FmxGraphModel%3E&lt;/span&gt;motion" style="rounded=0;whiteSpace=wrap;html=1;fontFamily=New York Small;" parent="_hS-4gmbDoJe5aBay4XO-33" vertex="1">
          <mxGeometry x="480" y="290" width="120" height="60" as="geometry" />
        </mxCell>
        <mxCell id="_hS-4gmbDoJe5aBay4XO-25" style="edgeStyle=orthogonalEdgeStyle;rounded=0;orthogonalLoop=1;jettySize=auto;html=1;entryX=0;entryY=0.5;entryDx=0;entryDy=0;fontFamily=New York Small;" parent="_hS-4gmbDoJe5aBay4XO-33" source="_hS-4gmbDoJe5aBay4XO-19" target="_hS-4gmbDoJe5aBay4XO-24" edge="1">
          <mxGeometry relative="1" as="geometry" />
        </mxCell>
        <mxCell id="_hS-4gmbDoJe5aBay4XO-26" value="TurnDegrees.json" style="rounded=0;whiteSpace=wrap;html=1;fontFamily=New York Small;" parent="_hS-4gmbDoJe5aBay4XO-33" vertex="1">
          <mxGeometry x="710" y="270" width="120" height="60" as="geometry" />
        </mxCell>
        <mxCell id="_hS-4gmbDoJe5aBay4XO-27" style="edgeStyle=orthogonalEdgeStyle;rounded=0;orthogonalLoop=1;jettySize=auto;html=1;entryX=0;entryY=0.5;entryDx=0;entryDy=0;fontFamily=New York Small;" parent="_hS-4gmbDoJe5aBay4XO-33" source="_hS-4gmbDoJe5aBay4XO-19" target="_hS-4gmbDoJe5aBay4XO-26" edge="1">
          <mxGeometry relative="1" as="geometry" />
        </mxCell>
        <mxCell id="_hS-4gmbDoJe5aBay4XO-28" value="If.json" style="rounded=0;whiteSpace=wrap;html=1;fontFamily=New York Small;" parent="_hS-4gmbDoJe5aBay4XO-33" vertex="1">
          <mxGeometry x="710" y="420" width="120" height="60" as="geometry" />
        </mxCell>
        <mxCell id="_hS-4gmbDoJe5aBay4XO-20" value="./control" style="rounded=0;whiteSpace=wrap;html=1;fontFamily=New York Small;" parent="_hS-4gmbDoJe5aBay4XO-33" vertex="1">
          <mxGeometry x="480" y="370" width="120" height="60" as="geometry" />
        </mxCell>
        <mxCell id="_hS-4gmbDoJe5aBay4XO-30" style="edgeStyle=orthogonalEdgeStyle;rounded=0;orthogonalLoop=1;jettySize=auto;html=1;entryX=0;entryY=0.5;entryDx=0;entryDy=0;fontFamily=New York Small;" parent="_hS-4gmbDoJe5aBay4XO-33" source="_hS-4gmbDoJe5aBay4XO-20" target="_hS-4gmbDoJe5aBay4XO-28" edge="1">
          <mxGeometry relative="1" as="geometry" />
        </mxCell>
        <mxCell id="_hS-4gmbDoJe5aBay4XO-18" value="./blocks" style="rounded=0;whiteSpace=wrap;html=1;fontFamily=New York Small;" parent="_hS-4gmbDoJe5aBay4XO-33" vertex="1">
          <mxGeometry x="50" y="480" width="120" height="60" as="geometry" />
        </mxCell>
        <mxCell id="_hS-4gmbDoJe5aBay4XO-32" value="Block Folder Hierarchy" style="text;html=1;align=center;verticalAlign=middle;resizable=0;points=[];autosize=1;strokeColor=#001DBC;fillColor=#0050ef;fontColor=#ffffff;fontFamily=New York Small;" parent="_hS-4gmbDoJe5aBay4XO-33" vertex="1">
          <mxGeometry x="20" width="140" height="30" as="geometry" />
        </mxCell>
        <mxCell id="_hS-4gmbDoJe5aBay4XO-34" value="MoveSteps&lt;span style=&quot;color: rgba(0, 0, 0, 0); font-family: monospace; font-size: 0px; text-align: start; text-wrap: nowrap;&quot;&gt;%3CmxGraphModel%3E%3Croot%3E%3CmxCell%20id%3D%220%22%2F%3E%3CmxCell%20id%3D%221%22%20parent%3D%220%22%2F%3E%3CmxCell%20id%3D%222%22%20value%3D%22.%2F%26lt%3Bspan%20style%3D%26quot%3Bcolor%3A%20rgba(0%2C%200%2C%200%2C%200)%3B%20font-family%3A%20monospace%3B%20font-size%3A%200px%3B%20text-align%3A%20start%3B%20text-wrap%3A%20nowrap%3B%26quot%3B%26gt%3B%253CmxGraphModel%253E%253Croot%253E%253CmxCell%2520id%253D%25220%2522%252F%253E%253CmxCell%2520id%253D%25221%2522%2520parent%253D%25220%2522%252F%253E%253CmxCell%2520id%253D%25222%2522%2520value%253D%2522.%252Fblocks%2522%2520style%253D%2522rounded%253D0%253BwhiteSpace%253Dwrap%253Bhtml%253D1%253B%2522%2520vertex%253D%25221%2522%2520parent%253D%25221%2522%253E%253CmxGeometry%2520x%253D%2522640%2522%2520y%253D%2522130%2522%2520width%253D%2522120%2522%2520height%253D%252260%2522%2520as%253D%2522geometry%2522%252F%253E%253C%252FmxCell%253E%253C%252Froot%253E%253C%252FmxGraphModel%253E%26lt%3B%2Fspan%26gt%3Bmotion%22%20style%3D%22rounded%3D0%3BwhiteSpace%3Dwrap%3Bhtml%3D1%3B%22%20vertex%3D%221%22%20parent%3D%221%22%3E%3CmxGeometry%20x%3D%22810%22%20y%3D%22130%22%20width%3D%22120%22%20height%3D%2260%22%20as%3D%22geometry%22%2F%3E%3C%2FmxCell%3E%3C%2Froot%3E%3C%2FmxGraphModel%3E&lt;/span&gt;.json" style="rounded=0;whiteSpace=wrap;html=1;fontFamily=New York Small;" parent="_hS-4gmbDoJe5aBay4XO-33" vertex="1">
          <mxGeometry x="880" y="130" width="120" height="60" as="geometry" />
        </mxCell>
        <mxCell id="yoZ5id3EdHScroARiDFy-1" value="data" style="rounded=0;whiteSpace=wrap;html=1;fontFamily=New York Small;" parent="_hS-4gmbDoJe5aBay4XO-33" vertex="1">
          <mxGeometry x="220" y="490" width="120" height="60" as="geometry" />
        </mxCell>
        <mxCell id="yoZ5id3EdHScroARiDFy-8" value="" style="swimlane;startSize=0;fontFamily=New York Small;" parent="_hS-4gmbDoJe5aBay4XO-33" vertex="1" collapsed="1">
          <mxGeometry x="220" y="580" width="50" height="40" as="geometry">
            <mxRectangle x="220" y="580" width="770" height="460" as="alternateBounds" />
          </mxGeometry>
        </mxCell>
        <mxCell id="yoZ5id3EdHScroARiDFy-3" value="MoveSteps&lt;span style=&quot;color: rgba(0, 0, 0, 0); font-family: monospace; font-size: 0px; text-align: start; text-wrap: nowrap;&quot;&gt;%3CmxGraphModel%3E%3Croot%3E%3CmxCell%20id%3D%220%22%2F%3E%3CmxCell%20id%3D%221%22%20parent%3D%220%22%2F%3E%3CmxCell%20id%3D%222%22%20value%3D%22.%2F%26lt%3Bspan%20style%3D%26quot%3Bcolor%3A%20rgba(0%2C%200%2C%200%2C%200)%3B%20font-family%3A%20monospace%3B%20font-size%3A%200px%3B%20text-align%3A%20start%3B%20text-wrap%3A%20nowrap%3B%26quot%3B%26gt%3B%253CmxGraphModel%253E%253Croot%253E%253CmxCell%2520id%253D%25220%2522%252F%253E%253CmxCell%2520id%253D%25221%2522%2520parent%253D%25220%2522%252F%253E%253CmxCell%2520id%253D%25222%2522%2520value%253D%2522.%252Fblocks%2522%2520style%253D%2522rounded%253D0%253BwhiteSpace%253Dwrap%253Bhtml%253D1%253B%2522%2520vertex%253D%25221%2522%2520parent%253D%25221%2522%253E%253CmxGeometry%2520x%253D%2522640%2522%2520y%253D%2522130%2522%2520width%253D%2522120%2522%2520height%253D%252260%2522%2520as%253D%2522geometry%2522%252F%253E%253C%252FmxCell%253E%253C%252Froot%253E%253C%252FmxGraphModel%253E%26lt%3B%2Fspan%26gt%3Bmotion%22%20style%3D%22rounded%3D0%3BwhiteSpace%3Dwrap%3Bhtml%3D1%3B%22%20vertex%3D%221%22%20parent%3D%221%22%3E%3CmxGeometry%20x%3D%22810%22%20y%3D%22130%22%20width%3D%22120%22%20height%3D%2260%22%20as%3D%22geometry%22%2F%3E%3C%2FmxCell%3E%3C%2Froot%3E%3C%2FmxGraphModel%3E&lt;/span&gt;.lua" style="rounded=0;whiteSpace=wrap;html=1;" parent="yoZ5id3EdHScroARiDFy-8" vertex="1">
          <mxGeometry x="480" y="30" width="120" height="60" as="geometry" />
        </mxCell>
        <mxCell id="yoZ5id3EdHScroARiDFy-5" value="TurnDegrees.lua" style="rounded=0;whiteSpace=wrap;html=1;" parent="yoZ5id3EdHScroARiDFy-8" vertex="1">
          <mxGeometry x="480" y="150" width="120" height="60" as="geometry" />
        </mxCell>
        <mxCell id="yoZ5id3EdHScroARiDFy-6" value="If.lua" style="rounded=0;whiteSpace=wrap;html=1;" parent="yoZ5id3EdHScroARiDFy-8" vertex="1">
          <mxGeometry x="480" y="300" width="120" height="60" as="geometry" />
        </mxCell>
        <mxCell id="yoZ5id3EdHScroARiDFy-7" value="./control" style="rounded=0;whiteSpace=wrap;html=1;" parent="yoZ5id3EdHScroARiDFy-8" vertex="1">
          <mxGeometry x="250" y="250" width="120" height="60" as="geometry" />
        </mxCell>
        <mxCell id="yoZ5id3EdHScroARiDFy-4" value="./&lt;span style=&quot;color: rgba(0, 0, 0, 0); font-family: monospace; font-size: 0px; text-align: start; text-wrap: nowrap;&quot;&gt;%3CmxGraphModel%3E%3Croot%3E%3CmxCell%20id%3D%220%22%2F%3E%3CmxCell%20id%3D%221%22%20parent%3D%220%22%2F%3E%3CmxCell%20id%3D%222%22%20value%3D%22.%2Fblocks%22%20style%3D%22rounded%3D0%3BwhiteSpace%3Dwrap%3Bhtml%3D1%3B%22%20vertex%3D%221%22%20parent%3D%221%22%3E%3CmxGeometry%20x%3D%22640%22%20y%3D%22130%22%20width%3D%22120%22%20height%3D%2260%22%20as%3D%22geometry%22%2F%3E%3C%2FmxCell%3E%3C%2Froot%3E%3C%2FmxGraphModel%3E&lt;/span&gt;motion" style="rounded=0;whiteSpace=wrap;html=1;" parent="yoZ5id3EdHScroARiDFy-8" vertex="1">
          <mxGeometry x="250" y="170" width="120" height="60" as="geometry" />
        </mxCell>
        <mxCell id="yoZ5id3EdHScroARiDFy-2" value="lua_code" style="rounded=0;whiteSpace=wrap;html=1;" parent="yoZ5id3EdHScroARiDFy-8" vertex="1">
          <mxGeometry y="30" width="120" height="60" as="geometry" />
        </mxCell>
        <mxCell id="5shLXdscnDf0XewSDCea-1" value="" style="swimlane;startSize=0;fontFamily=New York Small;" parent="1" vertex="1">
          <mxGeometry x="-560" y="-300" width="910" height="850" as="geometry" />
        </mxCell>
        <mxCell id="3yEFcDUE2ZUybokRz625-2" value="IDManager" style="swimlane;fontStyle=1;align=center;verticalAlign=top;childLayout=stackLayout;horizontal=1;startSize=26;horizontalStack=0;resizeParent=1;resizeParentMax=0;resizeLast=0;collapsible=1;marginBottom=0;whiteSpace=wrap;html=1;fontFamily=New York Small;" vertex="1" parent="5shLXdscnDf0XewSDCea-1">
          <mxGeometry x="100" y="90" width="160" height="200" as="geometry" />
        </mxCell>
        <mxCell id="3yEFcDUE2ZUybokRz625-3" value="counter:atomic&amp;lt;int&amp;gt;&lt;div&gt;prefix: string&lt;/div&gt;" style="text;strokeColor=none;fillColor=none;align=left;verticalAlign=top;spacingLeft=4;spacingRight=4;overflow=hidden;rotatable=0;points=[[0,0.5],[1,0.5]];portConstraint=eastwest;whiteSpace=wrap;html=1;fontFamily=New York Small;" vertex="1" parent="3yEFcDUE2ZUybokRz625-2">
          <mxGeometry y="26" width="160" height="124" as="geometry" />
        </mxCell>
        <mxCell id="3yEFcDUE2ZUybokRz625-4" value="" style="line;strokeWidth=1;fillColor=none;align=left;verticalAlign=middle;spacingTop=-1;spacingLeft=3;spacingRight=3;rotatable=0;labelPosition=right;points=[];portConstraint=eastwest;strokeColor=inherit;fontFamily=New York Small;" vertex="1" parent="3yEFcDUE2ZUybokRz625-2">
          <mxGeometry y="150" width="160" height="8" as="geometry" />
        </mxCell>
        <mxCell id="3yEFcDUE2ZUybokRz625-5" value="&lt;div&gt;generate_next()&lt;/div&gt;" style="text;strokeColor=none;fillColor=none;align=left;verticalAlign=top;spacingLeft=4;spacingRight=4;overflow=hidden;rotatable=0;points=[[0,0.5],[1,0.5]];portConstraint=eastwest;whiteSpace=wrap;html=1;fontFamily=New York Small;" vertex="1" parent="3yEFcDUE2ZUybokRz625-2">
          <mxGeometry y="158" width="160" height="42" as="geometry" />
        </mxCell>
        <mxCell id="3yEFcDUE2ZUybokRz625-16" value="SerializationEngine" style="swimlane;fontStyle=1;align=center;verticalAlign=top;childLayout=stackLayout;horizontal=1;startSize=26;horizontalStack=0;resizeParent=1;resizeParentMax=0;resizeLast=0;collapsible=1;marginBottom=0;whiteSpace=wrap;html=1;fontFamily=New York Small;" vertex="1" parent="5shLXdscnDf0XewSDCea-1">
          <mxGeometry x="420" y="110" width="160" height="220" as="geometry" />
        </mxCell>
        <mxCell id="3yEFcDUE2ZUybokRz625-17" value="counter:atomic&amp;lt;int&amp;gt;&lt;div&gt;prefix: string&lt;/div&gt;" style="text;strokeColor=none;fillColor=none;align=left;verticalAlign=top;spacingLeft=4;spacingRight=4;overflow=hidden;rotatable=0;points=[[0,0.5],[1,0.5]];portConstraint=eastwest;whiteSpace=wrap;html=1;fontFamily=New York Small;" vertex="1" parent="3yEFcDUE2ZUybokRz625-16">
          <mxGeometry y="26" width="160" height="124" as="geometry" />
        </mxCell>
        <mxCell id="3yEFcDUE2ZUybokRz625-18" value="" style="line;strokeWidth=1;fillColor=none;align=left;verticalAlign=middle;spacingTop=-1;spacingLeft=3;spacingRight=3;rotatable=0;labelPosition=right;points=[];portConstraint=eastwest;strokeColor=inherit;fontFamily=New York Small;" vertex="1" parent="3yEFcDUE2ZUybokRz625-16">
          <mxGeometry y="150" width="160" height="8" as="geometry" />
        </mxCell>
        <mxCell id="3yEFcDUE2ZUybokRz625-19" value="&lt;div&gt;instance()&lt;/div&gt;&lt;div&gt;serialize()&lt;/div&gt;&lt;div&gt;deserialize()&lt;/div&gt;" style="text;strokeColor=none;fillColor=none;align=left;verticalAlign=top;spacingLeft=4;spacingRight=4;overflow=hidden;rotatable=0;points=[[0,0.5],[1,0.5]];portConstraint=eastwest;whiteSpace=wrap;html=1;fontFamily=New York Small;" vertex="1" parent="3yEFcDUE2ZUybokRz625-16">
          <mxGeometry y="158" width="160" height="62" as="geometry" />
        </mxCell>
        <mxCell id="5shLXdscnDf0XewSDCea-2" value="Private" style="text;html=1;align=center;verticalAlign=middle;resizable=0;points=[];autosize=1;strokeColor=none;fillColor=none;fontFamily=New York Small;" parent="1" vertex="1">
          <mxGeometry x="-560" y="-330" width="60" height="30" as="geometry" />
        </mxCell>
        <mxCell id="v4MPRLpdaTy7f_wsQkJ--28" value="public" style="text;html=1;align=center;verticalAlign=middle;resizable=0;points=[];autosize=1;strokeColor=none;fillColor=none;" parent="1" vertex="1">
          <mxGeometry x="-985" y="-232" width="50" height="30" as="geometry" />
        </mxCell>
        <mxCell id="v4MPRLpdaTy7f_wsQkJ--1" value="projectManager&lt;div&gt;&lt;br&gt;&lt;/div&gt;" style="swimlane;fontStyle=1;align=center;verticalAlign=top;childLayout=stackLayout;horizontal=1;startSize=26;horizontalStack=0;resizeParent=1;resizeParentMax=0;resizeLast=0;collapsible=1;marginBottom=0;whiteSpace=wrap;html=1;fontFamily=New York Small;" parent="1" vertex="1">
          <mxGeometry x="-2755" y="290" width="170" height="270" as="geometry" />
        </mxCell>
        <mxCell id="v4MPRLpdaTy7f_wsQkJ--2" value="current_project: project&lt;div&gt;serialization_engine&lt;/div&gt;" style="text;strokeColor=none;fillColor=none;align=left;verticalAlign=top;spacingLeft=4;spacingRight=4;overflow=hidden;rotatable=0;points=[[0,0.5],[1,0.5]];portConstraint=eastwest;whiteSpace=wrap;html=1;fontFamily=New York Small;" parent="v4MPRLpdaTy7f_wsQkJ--1" vertex="1">
          <mxGeometry y="26" width="170" height="124" as="geometry" />
        </mxCell>
        <mxCell id="v4MPRLpdaTy7f_wsQkJ--3" value="" style="line;strokeWidth=1;fillColor=none;align=left;verticalAlign=middle;spacingTop=-1;spacingLeft=3;spacingRight=3;rotatable=0;labelPosition=right;points=[];portConstraint=eastwest;strokeColor=inherit;fontFamily=New York Small;" parent="v4MPRLpdaTy7f_wsQkJ--1" vertex="1">
          <mxGeometry y="150" width="170" height="8" as="geometry" />
        </mxCell>
        <mxCell id="v4MPRLpdaTy7f_wsQkJ--4" value="&lt;div&gt;instance()&lt;/div&gt;&lt;div&gt;create()&lt;/div&gt;&lt;div&gt;load(std::fielsystem::path)&lt;/div&gt;&lt;div&gt;save()&lt;/div&gt;&lt;div&gt;clear()&lt;/div&gt;" style="text;strokeColor=none;fillColor=none;align=left;verticalAlign=top;spacingLeft=4;spacingRight=4;overflow=hidden;rotatable=0;points=[[0,0.5],[1,0.5]];portConstraint=eastwest;whiteSpace=wrap;html=1;fontFamily=New York Small;" parent="v4MPRLpdaTy7f_wsQkJ--1" vertex="1">
          <mxGeometry y="158" width="170" height="112" as="geometry" />
        </mxCell>
        <mxCell id="_hS-4gmbDoJe5aBay4XO-9" value="BlockLibrary&lt;div&gt;&lt;br&gt;&lt;/div&gt;" style="swimlane;fontStyle=1;align=center;verticalAlign=top;childLayout=stackLayout;horizontal=1;startSize=20;horizontalStack=0;resizeParent=1;resizeParentMax=0;resizeLast=0;collapsible=1;marginBottom=0;whiteSpace=wrap;html=1;fontFamily=New York Small;" parent="1" vertex="1">
          <mxGeometry x="-1890" y="300" width="210" height="310" as="geometry" />
        </mxCell>
        <mxCell id="_hS-4gmbDoJe5aBay4XO-10" value="categories: String[]&lt;div&gt;block_definifions_by_id: map&amp;lt;string, BlockDefnition&amp;gt;&lt;/div&gt;" style="text;strokeColor=none;fillColor=none;align=left;verticalAlign=top;spacingLeft=4;spacingRight=4;overflow=hidden;rotatable=0;points=[[0,0.5],[1,0.5]];portConstraint=eastwest;whiteSpace=wrap;html=1;fontFamily=New York Small;" parent="_hS-4gmbDoJe5aBay4XO-9" vertex="1">
          <mxGeometry y="20" width="210" height="160" as="geometry" />
        </mxCell>
        <mxCell id="_hS-4gmbDoJe5aBay4XO-11" value="" style="line;strokeWidth=1;fillColor=none;align=left;verticalAlign=middle;spacingTop=-1;spacingLeft=3;spacingRight=3;rotatable=0;labelPosition=right;points=[];portConstraint=eastwest;strokeColor=inherit;fontFamily=New York Small;" parent="_hS-4gmbDoJe5aBay4XO-9" vertex="1">
          <mxGeometry y="180" width="210" height="8" as="geometry" />
        </mxCell>
        <mxCell id="_hS-4gmbDoJe5aBay4XO-12" value="instance()&lt;br&gt;initailize()&lt;div&gt;reload()&lt;br&gt;categories()&lt;/div&gt;&lt;div&gt;category_blocks(String)&lt;/div&gt;&lt;div&gt;get_block_definition_by_id(String)&lt;/div&gt;" style="text;strokeColor=none;fillColor=none;align=left;verticalAlign=top;spacingLeft=4;spacingRight=4;overflow=hidden;rotatable=0;points=[[0,0.5],[1,0.5]];portConstraint=eastwest;whiteSpace=wrap;html=1;fontFamily=New York Small;" parent="_hS-4gmbDoJe5aBay4XO-9" vertex="1">
          <mxGeometry y="188" width="210" height="122" as="geometry" />
        </mxCell>
        <mxCell id="hKvFRByy_93splakmUEB-1" value="Character" style="swimlane;fontStyle=1;align=center;verticalAlign=top;childLayout=stackLayout;horizontal=1;startSize=26;horizontalStack=0;resizeParent=1;resizeParentMax=0;resizeLast=0;collapsible=1;marginBottom=0;whiteSpace=wrap;html=1;fontFamily=New York Small;" parent="1" vertex="1">
          <mxGeometry x="-3120" y="1120" width="160" height="200" as="geometry" />
        </mxCell>
        <mxCell id="hKvFRByy_93splakmUEB-2" value="pos; Vec2&lt;div&gt;assets: Asset[]&lt;/div&gt;&lt;div&gt;scripts: Script[]&lt;/div&gt;&lt;div&gt;scriptIdManager: IDManager&lt;/div&gt;&lt;div&gt;AssetIdManager: IDManager&lt;/div&gt;" style="text;strokeColor=none;fillColor=none;align=left;verticalAlign=top;spacingLeft=4;spacingRight=4;overflow=hidden;rotatable=0;points=[[0,0.5],[1,0.5]];portConstraint=eastwest;whiteSpace=wrap;html=1;fontFamily=New York Small;" parent="hKvFRByy_93splakmUEB-1" vertex="1">
          <mxGeometry y="26" width="160" height="124" as="geometry" />
        </mxCell>
        <mxCell id="hKvFRByy_93splakmUEB-3" value="" style="line;strokeWidth=1;fillColor=none;align=left;verticalAlign=middle;spacingTop=-1;spacingLeft=3;spacingRight=3;rotatable=0;labelPosition=right;points=[];portConstraint=eastwest;strokeColor=inherit;fontFamily=New York Small;" parent="hKvFRByy_93splakmUEB-1" vertex="1">
          <mxGeometry y="150" width="160" height="8" as="geometry" />
        </mxCell>
        <mxCell id="hKvFRByy_93splakmUEB-4" value="&lt;div&gt;add_script(Character_ID)&lt;/div&gt;&lt;div&gt;&lt;div&gt;&lt;span style=&quot;background-color: transparent; color: light-dark(rgb(0, 0, 0), rgb(255, 255, 255));&quot;&gt;add_asset(asset_id)&lt;/span&gt;&lt;/div&gt;&lt;/div&gt;&lt;div&gt;&lt;span style=&quot;background-color: transparent; color: light-dark(rgb(0, 0, 0), rgb(255, 255, 255));&quot;&gt;&lt;br&gt;&lt;/span&gt;&lt;/div&gt;" style="text;strokeColor=none;fillColor=none;align=left;verticalAlign=top;spacingLeft=4;spacingRight=4;overflow=hidden;rotatable=0;points=[[0,0.5],[1,0.5]];portConstraint=eastwest;whiteSpace=wrap;html=1;fontFamily=New York Small;" parent="hKvFRByy_93splakmUEB-1" vertex="1">
          <mxGeometry y="158" width="160" height="42" as="geometry" />
        </mxCell>
        <mxCell id="hKvFRByy_93splakmUEB-9" value="Asset" style="swimlane;fontStyle=1;align=center;verticalAlign=top;childLayout=stackLayout;horizontal=1;startSize=26;horizontalStack=0;resizeParent=1;resizeParentMax=0;resizeLast=0;collapsible=1;marginBottom=0;whiteSpace=wrap;html=1;fontFamily=New York Small;" parent="1" vertex="1">
          <mxGeometry x="-3000" y="1420" width="160" height="184" as="geometry" />
        </mxCell>
        <mxCell id="hKvFRByy_93splakmUEB-10" value="path:String" style="text;strokeColor=none;fillColor=none;align=left;verticalAlign=top;spacingLeft=4;spacingRight=4;overflow=hidden;rotatable=0;points=[[0,0.5],[1,0.5]];portConstraint=eastwest;whiteSpace=wrap;html=1;fontFamily=New York Small;" parent="hKvFRByy_93splakmUEB-9" vertex="1">
          <mxGeometry y="26" width="160" height="124" as="geometry" />
        </mxCell>
        <mxCell id="hKvFRByy_93splakmUEB-11" value="" style="line;strokeWidth=1;fillColor=none;align=left;verticalAlign=middle;spacingTop=-1;spacingLeft=3;spacingRight=3;rotatable=0;labelPosition=right;points=[];portConstraint=eastwest;strokeColor=inherit;fontFamily=New York Small;" parent="hKvFRByy_93splakmUEB-9" vertex="1">
          <mxGeometry y="150" width="160" height="8" as="geometry" />
        </mxCell>
        <mxCell id="hKvFRByy_93splakmUEB-12" value="+ method(type): type" style="text;strokeColor=none;fillColor=none;align=left;verticalAlign=top;spacingLeft=4;spacingRight=4;overflow=hidden;rotatable=0;points=[[0,0.5],[1,0.5]];portConstraint=eastwest;whiteSpace=wrap;html=1;fontFamily=New York Small;" parent="hKvFRByy_93splakmUEB-9" vertex="1">
          <mxGeometry y="158" width="160" height="26" as="geometry" />
        </mxCell>
        <mxCell id="3yEFcDUE2ZUybokRz625-30" style="edgeStyle=orthogonalEdgeStyle;rounded=0;orthogonalLoop=1;jettySize=auto;html=1;" edge="1" parent="1" source="3yEFcDUE2ZUybokRz625-6" target="3yEFcDUE2ZUybokRz625-10">
          <mxGeometry relative="1" as="geometry" />
        </mxCell>
        <mxCell id="3yEFcDUE2ZUybokRz625-31" value="Composition" style="edgeLabel;html=1;align=center;verticalAlign=middle;resizable=0;points=[];" vertex="1" connectable="0" parent="3yEFcDUE2ZUybokRz625-30">
          <mxGeometry x="0.6688" y="1" relative="1" as="geometry">
            <mxPoint as="offset" />
          </mxGeometry>
        </mxCell>
        <mxCell id="3yEFcDUE2ZUybokRz625-6" value="BlockInstance" style="swimlane;fontStyle=1;align=center;verticalAlign=top;childLayout=stackLayout;horizontal=1;startSize=20;horizontalStack=0;resizeParent=1;resizeParentMax=0;resizeLast=0;collapsible=1;marginBottom=0;whiteSpace=wrap;html=1;fontFamily=New York Small;" vertex="1" parent="1">
          <mxGeometry x="-2160" y="720" width="210" height="310" as="geometry" />
        </mxCell>
        <mxCell id="3yEFcDUE2ZUybokRz625-7" value="id: String&lt;div&gt;def: BlockDefinition&lt;/div&gt;&lt;div&gt;x: float&lt;/div&gt;&lt;div&gt;y: float&lt;/div&gt;&lt;div&gt;_inputs: InputSlot[]&lt;/div&gt;" style="text;strokeColor=none;fillColor=none;align=left;verticalAlign=top;spacingLeft=4;spacingRight=4;overflow=hidden;rotatable=0;points=[[0,0.5],[1,0.5]];portConstraint=eastwest;whiteSpace=wrap;html=1;fontFamily=New York Small;" vertex="1" parent="3yEFcDUE2ZUybokRz625-6">
          <mxGeometry y="20" width="210" height="160" as="geometry" />
        </mxCell>
        <mxCell id="3yEFcDUE2ZUybokRz625-8" value="" style="line;strokeWidth=1;fillColor=none;align=left;verticalAlign=middle;spacingTop=-1;spacingLeft=3;spacingRight=3;rotatable=0;labelPosition=right;points=[];portConstraint=eastwest;strokeColor=inherit;fontFamily=New York Small;" vertex="1" parent="3yEFcDUE2ZUybokRz625-6">
          <mxGeometry y="180" width="210" height="8" as="geometry" />
        </mxCell>
        <mxCell id="3yEFcDUE2ZUybokRz625-9" value="instance()&lt;br&gt;initailize()&lt;div&gt;reload()&lt;br&gt;categories()&lt;/div&gt;&lt;div&gt;category_blocks(String)&lt;/div&gt;&lt;div&gt;get_block_definition_by_id(String)&lt;/div&gt;" style="text;strokeColor=none;fillColor=none;align=left;verticalAlign=top;spacingLeft=4;spacingRight=4;overflow=hidden;rotatable=0;points=[[0,0.5],[1,0.5]];portConstraint=eastwest;whiteSpace=wrap;html=1;fontFamily=New York Small;" vertex="1" parent="3yEFcDUE2ZUybokRz625-6">
          <mxGeometry y="188" width="210" height="122" as="geometry" />
        </mxCell>
        <mxCell id="3yEFcDUE2ZUybokRz625-10" value="BlockDefnition" style="swimlane;fontStyle=1;align=center;verticalAlign=top;childLayout=stackLayout;horizontal=1;startSize=20;horizontalStack=0;resizeParent=1;resizeParentMax=0;resizeLast=0;collapsible=1;marginBottom=0;whiteSpace=wrap;html=1;fontFamily=New York Small;" vertex="1" parent="1">
          <mxGeometry x="-1860" y="720" width="210" height="310" as="geometry" />
        </mxCell>
        <mxCell id="3yEFcDUE2ZUybokRz625-11" value="has_body: boolean&lt;div&gt;id: id&lt;/div&gt;&lt;div&gt;name&lt;/div&gt;&lt;div&gt;category&lt;/div&gt;&lt;div&gt;output&lt;/div&gt;" style="text;strokeColor=none;fillColor=none;align=left;verticalAlign=top;spacingLeft=4;spacingRight=4;overflow=hidden;rotatable=0;points=[[0,0.5],[1,0.5]];portConstraint=eastwest;whiteSpace=wrap;html=1;fontFamily=New York Small;" vertex="1" parent="3yEFcDUE2ZUybokRz625-10">
          <mxGeometry y="20" width="210" height="160" as="geometry" />
        </mxCell>
        <mxCell id="3yEFcDUE2ZUybokRz625-12" value="" style="line;strokeWidth=1;fillColor=none;align=left;verticalAlign=middle;spacingTop=-1;spacingLeft=3;spacingRight=3;rotatable=0;labelPosition=right;points=[];portConstraint=eastwest;strokeColor=inherit;fontFamily=New York Small;" vertex="1" parent="3yEFcDUE2ZUybokRz625-10">
          <mxGeometry y="180" width="210" height="8" as="geometry" />
        </mxCell>
        <mxCell id="3yEFcDUE2ZUybokRz625-13" value="instance()&lt;br&gt;initailize()&lt;div&gt;reload()&lt;br&gt;categories()&lt;/div&gt;&lt;div&gt;category_blocks(String)&lt;/div&gt;&lt;div&gt;get_block_definition_by_id(String)&lt;/div&gt;" style="text;strokeColor=none;fillColor=none;align=left;verticalAlign=top;spacingLeft=4;spacingRight=4;overflow=hidden;rotatable=0;points=[[0,0.5],[1,0.5]];portConstraint=eastwest;whiteSpace=wrap;html=1;fontFamily=New York Small;" vertex="1" parent="3yEFcDUE2ZUybokRz625-10">
          <mxGeometry y="188" width="210" height="122" as="geometry" />
        </mxCell>
        <mxCell id="hKvFRByy_93splakmUEB-5" value="Script" style="swimlane;fontStyle=1;align=center;verticalAlign=top;childLayout=stackLayout;horizontal=1;startSize=26;horizontalStack=0;resizeParent=1;resizeParentMax=0;resizeLast=0;collapsible=1;marginBottom=0;whiteSpace=wrap;html=1;fontFamily=New York Small;" parent="1" vertex="1">
          <mxGeometry x="-2540" y="1200" width="160" height="230" as="geometry" />
        </mxCell>
        <mxCell id="hKvFRByy_93splakmUEB-6" value="blocks: BlockInstance[]&lt;div&gt;&lt;br&gt;&lt;/div&gt;" style="text;strokeColor=none;fillColor=none;align=left;verticalAlign=top;spacingLeft=4;spacingRight=4;overflow=hidden;rotatable=0;points=[[0,0.5],[1,0.5]];portConstraint=eastwest;whiteSpace=wrap;html=1;fontFamily=New York Small;" parent="hKvFRByy_93splakmUEB-5" vertex="1">
          <mxGeometry y="26" width="160" height="124" as="geometry" />
        </mxCell>
        <mxCell id="hKvFRByy_93splakmUEB-7" value="" style="line;strokeWidth=1;fillColor=none;align=left;verticalAlign=middle;spacingTop=-1;spacingLeft=3;spacingRight=3;rotatable=0;labelPosition=right;points=[];portConstraint=eastwest;strokeColor=inherit;fontFamily=New York Small;" parent="hKvFRByy_93splakmUEB-5" vertex="1">
          <mxGeometry y="150" width="160" height="8" as="geometry" />
        </mxCell>
        <mxCell id="hKvFRByy_93splakmUEB-8" value="&lt;div&gt;&lt;span style=&quot;background-color: transparent; color: light-dark(rgb(0, 0, 0), rgb(255, 255, 255));&quot;&gt;add_instance(Script_ID, BlockInstance)&lt;/span&gt;&lt;/div&gt;&lt;div&gt;&lt;span style=&quot;background-color: transparent; color: light-dark(rgb(0, 0, 0), rgb(255, 255, 255));&quot;&gt;&lt;br&gt;&lt;/span&gt;&lt;/div&gt;" style="text;strokeColor=none;fillColor=none;align=left;verticalAlign=top;spacingLeft=4;spacingRight=4;overflow=hidden;rotatable=0;points=[[0,0.5],[1,0.5]];portConstraint=eastwest;whiteSpace=wrap;html=1;fontFamily=New York Small;" parent="hKvFRByy_93splakmUEB-5" vertex="1">
          <mxGeometry y="158" width="160" height="72" as="geometry" />
        </mxCell>
        <mxCell id="3yEFcDUE2ZUybokRz625-14" style="edgeStyle=orthogonalEdgeStyle;rounded=0;orthogonalLoop=1;jettySize=auto;html=1;entryX=0.5;entryY=0;entryDx=0;entryDy=0;" edge="1" parent="1" source="v4MPRLpdaTy7f_wsQkJ--1" target="xCO2DiY6SyWW8Tg87C9w-1">
          <mxGeometry relative="1" as="geometry" />
        </mxCell>
        <mxCell id="3yEFcDUE2ZUybokRz625-15" value="Associatation" style="edgeLabel;html=1;align=center;verticalAlign=middle;resizable=0;points=[];" vertex="1" connectable="0" parent="3yEFcDUE2ZUybokRz625-14">
          <mxGeometry x="-0.1231" y="-4" relative="1" as="geometry">
            <mxPoint as="offset" />
          </mxGeometry>
        </mxCell>
        <mxCell id="3yEFcDUE2ZUybokRz625-20" style="edgeStyle=orthogonalEdgeStyle;rounded=0;orthogonalLoop=1;jettySize=auto;html=1;" edge="1" parent="1" source="xCO2DiY6SyWW8Tg87C9w-1" target="hKvFRByy_93splakmUEB-1">
          <mxGeometry relative="1" as="geometry" />
        </mxCell>
        <mxCell id="3yEFcDUE2ZUybokRz625-21" value="aggregation" style="edgeLabel;html=1;align=center;verticalAlign=middle;resizable=0;points=[];" vertex="1" connectable="0" parent="3yEFcDUE2ZUybokRz625-20">
          <mxGeometry x="-0.2113" y="1" relative="1" as="geometry">
            <mxPoint as="offset" />
          </mxGeometry>
        </mxCell>
        <mxCell id="xCO2DiY6SyWW8Tg87C9w-1" value="&lt;div&gt;Project&lt;/div&gt;" style="swimlane;fontStyle=1;align=center;verticalAlign=top;childLayout=stackLayout;horizontal=1;startSize=20;horizontalStack=0;resizeParent=1;resizeParentMax=0;resizeLast=0;collapsible=1;marginBottom=0;whiteSpace=wrap;html=1;fontFamily=New York Small;" parent="1" vertex="1">
          <mxGeometry x="-2790" y="700" width="240" height="310" as="geometry" />
        </mxCell>
        <mxCell id="xCO2DiY6SyWW8Tg87C9w-3" value="" style="line;strokeWidth=1;fillColor=none;align=left;verticalAlign=middle;spacingTop=-1;spacingLeft=3;spacingRight=3;rotatable=0;labelPosition=right;points=[];portConstraint=eastwest;strokeColor=inherit;fontFamily=New York Small;" parent="xCO2DiY6SyWW8Tg87C9w-1" vertex="1">
          <mxGeometry y="20" width="240" height="8" as="geometry" />
        </mxCell>
        <mxCell id="xCO2DiY6SyWW8Tg87C9w-2" value="characters: Store&amp;lt;Character&amp;gt;&lt;div&gt;characterIDManager: IDmanager&lt;/div&gt;&lt;div&gt;assets: Store&amp;lt;Asset&amp;gt;&lt;/div&gt;&lt;div&gt;scripts: Store&amp;lt;Script&amp;gt;&lt;/div&gt;&lt;div&gt;instances: Store&amp;lt;BlockInstance&amp;gt;&lt;/div&gt;" style="text;strokeColor=none;fillColor=none;align=left;verticalAlign=top;spacingLeft=4;spacingRight=4;overflow=hidden;rotatable=0;points=[[0,0.5],[1,0.5]];portConstraint=eastwest;whiteSpace=wrap;html=1;fontFamily=New York Small;" parent="xCO2DiY6SyWW8Tg87C9w-1" vertex="1">
          <mxGeometry y="28" width="240" height="160" as="geometry" />
        </mxCell>
        <mxCell id="xCO2DiY6SyWW8Tg87C9w-4" value="create_lock()&lt;div&gt;&lt;span style=&quot;background-color: transparent; color: light-dark(rgb(0, 0, 0), rgb(255, 255, 255));&quot;&gt;add_characater(character_id)&lt;/span&gt;&lt;/div&gt;&lt;div&gt;&lt;br&gt;&lt;/div&gt;" style="text;strokeColor=none;fillColor=none;align=left;verticalAlign=top;spacingLeft=4;spacingRight=4;overflow=hidden;rotatable=0;points=[[0,0.5],[1,0.5]];portConstraint=eastwest;whiteSpace=wrap;html=1;fontFamily=New York Small;" parent="xCO2DiY6SyWW8Tg87C9w-1" vertex="1">
          <mxGeometry y="188" width="240" height="122" as="geometry" />
        </mxCell>
        <mxCell id="3yEFcDUE2ZUybokRz625-22" style="edgeStyle=orthogonalEdgeStyle;rounded=0;orthogonalLoop=1;jettySize=auto;html=1;entryX=0.613;entryY=0.022;entryDx=0;entryDy=0;entryPerimeter=0;exitX=0.542;exitY=1;exitDx=0;exitDy=0;exitPerimeter=0;" edge="1" parent="1" source="xCO2DiY6SyWW8Tg87C9w-4" target="hKvFRByy_93splakmUEB-5">
          <mxGeometry relative="1" as="geometry" />
        </mxCell>
        <mxCell id="3yEFcDUE2ZUybokRz625-23" value="aggregation" style="edgeLabel;html=1;align=center;verticalAlign=middle;resizable=0;points=[];" vertex="1" connectable="0" parent="3yEFcDUE2ZUybokRz625-22">
          <mxGeometry x="-0.2385" y="-4" relative="1" as="geometry">
            <mxPoint as="offset" />
          </mxGeometry>
        </mxCell>
        <mxCell id="3yEFcDUE2ZUybokRz625-24" style="edgeStyle=orthogonalEdgeStyle;rounded=0;orthogonalLoop=1;jettySize=auto;html=1;entryX=0.438;entryY=0.005;entryDx=0;entryDy=0;entryPerimeter=0;" edge="1" parent="1" source="xCO2DiY6SyWW8Tg87C9w-4" target="hKvFRByy_93splakmUEB-9">
          <mxGeometry relative="1" as="geometry">
            <Array as="points">
              <mxPoint x="-2750" y="1421" />
            </Array>
          </mxGeometry>
        </mxCell>
        <mxCell id="3yEFcDUE2ZUybokRz625-25" value="aggregation" style="text;html=1;align=center;verticalAlign=middle;resizable=0;points=[];autosize=1;strokeColor=none;fillColor=none;" vertex="1" parent="1">
          <mxGeometry x="-2935" y="1348" width="90" height="30" as="geometry" />
        </mxCell>
        <mxCell id="3yEFcDUE2ZUybokRz625-26" style="edgeStyle=orthogonalEdgeStyle;rounded=0;orthogonalLoop=1;jettySize=auto;html=1;entryX=0.457;entryY=0.013;entryDx=0;entryDy=0;entryPerimeter=0;" edge="1" parent="1" source="_hS-4gmbDoJe5aBay4XO-9" target="3yEFcDUE2ZUybokRz625-10">
          <mxGeometry relative="1" as="geometry" />
        </mxCell>
        <mxCell id="3yEFcDUE2ZUybokRz625-27" value="aggregation" style="text;html=1;align=center;verticalAlign=middle;resizable=0;points=[];autosize=1;strokeColor=none;fillColor=none;" vertex="1" parent="1">
          <mxGeometry x="-1835" y="648" width="90" height="30" as="geometry" />
        </mxCell>
      </root>
    </mxGraphModel>
  </diagram>
</mxfile>
